# xmcd
#
# Track frame offsets: 
#        150
#        17537
#        41147
#        63670
#        80302
#        104500
#        120637
#        144875
#        173485
#        193077
#        220620
#        241550
#
# Disc length: 3455 seconds
#
# Revision: 0
# Processed by: cddbd v1.5.2PL0 Copyright (c) Steve Scherf et al.
# Submitted via: ExactAudioCopyFreeDBPlugin 1.0
#
DISCID=960d7d0c
DTITLE=To chan Phong - Giay phut gia tu
DYEAR=1900
DGENRE=
TTITLE0=Yeu em tu do mat trao
TTITLE1=Ngoc Lan - Di vang
TTITLE2=To Chan Phong - Quan cafe vang
TTITLE3=Ngoc Lan - Tinh su Romeo Juliet
TTITLE4=Bay gio thang may
TTITLE5=Ngoc Lan - Loi tinh buon
TTITLE6=Tren nhung tan phai
TTITLE7=Ngoc Lan - Tinh
TTITLE8=Bien Tinh Yeu
TTITLE9=Ngoc Lan - Ban tinh cuoi
TTITLE10=Tinh mong manh
TTITLE11=Giay phut gia tu
EXTD=
EXTT0=
EXTT1=
EXTT2=
EXTT3=
EXTT4=
EXTT5=
EXTT6=
EXTT7=
EXTT8=
EXTT9=
EXTT10=
EXTT11=
PLAYORDER=
